<?xml version="1.0" standalone="no"?>
<!DOCTYPE svg PUBLIC "-//W3C//DTD SVG 20010904//EN"
 "http://www.w3.org/TR/2001/REC-SVG-20010904/DTD/svg10.dtd">
<svg version="1.0" xmlns="http://www.w3.org/2000/svg"
 width="700.000000pt" height="700.000000pt" viewBox="0 0 700.000000 700.000000"
 preserveAspectRatio="xMidYMid meet">
<metadata>
Created by potrace 1.11, written by Peter Selinger 2001-2013
</metadata>
<g transform="translate(0.000000,700.000000) scale(0.100000,-0.100000)"
fill="#000000" stroke="none">
<path d="M2018 6883 c-23 -27 -43 -76 -84 -208 -51 -164 -50 -186 25 -375 34
-85 58 -157 54 -160 -5 -4 -30 -24 -58 -46 -27 -21 -52 -41 -55 -44 -45 -45
-201 -150 -223 -150 -8 0 -52 27 -98 61 -193 140 -180 133 -283 132 -184 -3
-303 -23 -343 -58 -36 -30 -35 -82 3 -133 42 -57 205 -221 241 -243 30 -19
110 -36 248 -53 28 -4 64 -11 81 -17 39 -12 45 -30 78 -234 3 -16 8 -50 11
-75 3 -25 8 -59 11 -75 5 -30 5 -31 -118 -85 -217 -95 -235 -111 -321 -288
-85 -174 -94 -217 -51 -257 30 -28 49 -27 221 6 219 42 252 63 385 237 71 92
83 100 116 83 9 -5 55 -24 102 -42 197 -75 263 -116 255 -159 -8 -43 -19 -180
-19 -235 0 -43 7 -73 23 -105 23 -43 89 -150 101 -160 3 -3 17 -21 31 -40 131
-174 177 -159 260 90 23 69 44 152 46 186 5 55 0 72 -52 205 -31 79 -59 151
-61 160 -4 12 30 45 122 117 159 126 200 148 234 130 37 -20 147 -95 218 -151
l64 -49 96 7 c154 10 272 30 313 50 71 37 46 113 -91 266 -147 164 -137 156
-215 164 -102 9 -205 24 -247 36 -39 10 -43 18 -62 114 -4 17 -9 41 -11 55 -3
14 -8 43 -11 65 -2 22 -9 69 -14 105 -5 36 -10 68 -10 72 0 4 21 17 48 29 192
87 272 131 304 168 38 45 153 269 163 318 6 31 -5 64 -31 90 -13 14 -98 18
-149 8 -16 -3 -63 -13 -102 -21 -40 -9 -75 -16 -78 -15 -15 2 -121 -44 -143
-63 -22 -18 -55 -61 -182 -233 l-32 -42 -46 18 c-217 86 -262 106 -299 127
-41 24 -46 30 -46 64 1 20 12 126 18 165 9 60 6 146 -6 182 -26 80 -178 281
-232 306 -45 22 -80 21 -99 0z m342 -1233 c72 -51 125 -149 109 -203 -30 -105
-140 -171 -242 -148 -100 23 -175 177 -124 255 20 30 83 72 147 97 59 23 76
23 110 -1z"/>
<path d="M4024 5220 c-25 -10 -64 -59 -87 -110 -101 -223 -107 -251 -103 -462
2 -125 0 -178 -8 -179 -14 -1 -20 -2 -161 -39 -66 -18 -127 -34 -135 -36 -8
-2 -49 -12 -90 -23 -41 -12 -78 -21 -82 -21 -4 0 -14 26 -23 57 -53 181 -229
383 -421 482 -54 29 -58 29 -93 15 -77 -31 -107 -103 -98 -241 4 -48 13 -115
22 -148 14 -55 69 -186 87 -210 4 -5 28 -37 53 -70 90 -119 103 -82 -96 -281
-95 -96 -178 -174 -183 -174 -4 0 -47 26 -95 58 -196 133 -261 156 -483 169
-54 3 -108 3 -121 -1 -48 -12 -96 -75 -91 -119 5 -53 129 -233 223 -324 46
-45 138 -105 182 -118 42 -13 118 -66 125 -87 13 -41 5 -95 -37 -248 -23 -85
-44 -165 -46 -176 -5 -21 -9 -22 -201 -21 l-197 1 -95 -35 c-126 -48 -224 -97
-250 -124 -25 -27 -36 -108 -19 -147 20 -49 218 -143 361 -172 58 -12 290 -13
351 -2 25 4 41 -2 44 -19 1 -5 13 -53 27 -105 36 -132 43 -155 66 -234 37
-127 40 -119 -43 -152 -196 -77 -268 -129 -372 -268 -82 -109 -124 -184 -119
-211 7 -42 21 -69 44 -90 20 -18 36 -20 149 -20 236 0 328 31 505 168 l89 69
76 -75 c42 -42 122 -121 179 -176 56 -56 102 -103 102 -106 0 -3 -34 -55 -75
-116 -71 -103 -118 -192 -130 -243 -24 -103 -33 -172 -31 -258 l1 -100 34 -29
c68 -56 116 -51 225 25 162 113 225 181 306 331 23 44 57 95 74 113 28 30 35
32 71 27 38 -6 178 -41 330 -82 l70 -19 -3 -164 c-4 -189 4 -234 70 -390 52
-124 87 -179 118 -187 43 -12 104 -10 132 4 32 16 103 151 148 283 27 82 28
91 27 269 l-2 184 45 13 c64 19 327 82 376 90 38 6 43 4 63 -25 12 -17 43 -70
68 -119 49 -93 80 -139 128 -187 47 -48 195 -155 251 -182 48 -24 54 -25 95
-12 30 10 51 25 67 49 23 34 24 40 19 160 -6 145 -30 242 -83 340 -32 57 -105
160 -141 198 -7 7 -13 18 -13 22 0 5 39 48 88 96 48 47 128 126 178 176 l91
90 94 -72 c176 -135 270 -166 507 -169 l114 -2 32 35 c66 70 55 120 -64 275
-96 128 -150 174 -270 236 -131 67 -172 98 -165 128 21 104 99 414 106 421 4
5 41 8 81 6 274 -11 334 -3 478 59 142 61 178 85 191 130 7 23 9 58 5 85 -9
56 -29 72 -170 133 -168 73 -214 82 -413 78 l-173 -4 -10 42 c-6 23 -20 71
-30 107 -17 58 -47 177 -64 252 -9 40 31 80 142 139 138 74 189 116 284 234
71 89 118 166 118 193 0 43 -32 102 -64 119 -77 41 -347 3 -487 -68 -58 -29
-176 -103 -189 -118 -3 -4 -17 -14 -31 -23 l-26 -16 -178 178 c-126 126 -175
182 -169 191 4 8 31 43 59 79 96 121 131 191 162 325 2 11 6 76 9 145 4 152
-5 180 -71 206 -55 20 -87 11 -182 -53 -199 -133 -245 -187 -328 -378 -26 -60
-49 -112 -50 -113 -2 -2 -39 6 -82 18 -43 12 -85 23 -93 25 -8 2 -81 20 -161
41 l-146 37 3 176 c2 147 0 187 -15 241 -40 142 -121 305 -160 324 -32 15 -98
19 -127 6z m132 -2390 c87 -43 107 -68 112 -138 4 -74 -25 -134 -86 -177 -37
-25 -53 -30 -102 -30 -47 1 -65 6 -100 30 -98 68 -115 150 -50 236 47 62 107
109 139 109 16 0 55 -13 87 -30z"/>
</g>
</svg>
